<?xml version="1.0" encoding="UTF-8"?>
<svg width="48px" height="48px" viewBox="0 0 48 48" version="1.1" xmlns="http://www.w3.org/2000/svg" xmlns:xlink="http://www.w3.org/1999/xlink">
    <!-- Generator: Sketch 54.1 (76490) - https://sketchapp.com -->
    <title>icon-Password-invisible#48</title>
    <desc>Created with Sketch.</desc>
    <g id="页面1" stroke="none" stroke-width="1" fill="none" fill-rule="evenodd">
        <g id="mimabukejian复制" transform="translate(4.000000, 16.000000)" fill="#D9D9D9" fill-rule="nonzero">
            <path d="M39.5123017,7.40244473 L37.2768791,5.16702211 C38.078948,4.46948913 38.8416324,3.72792094 39.5614044,2.94574772 C40.1830659,2.26846994 40.1379799,1.21547165 39.4607022,0.593810175 C38.7834244,-0.0278512957 37.7304261,0.0172346052 37.1087646,0.694512354 C32.5638492,5.64723017 26.5283745,8.37451235 20.113394,8.37451235 C13.646814,8.37451235 7.54892068,5.61061118 2.94241873,0.590481144 C2.54027426,0.152359243 1.9349422,-0.0379405694 1.35444527,0.0912658039 C0.773948338,0.220472177 0.306477834,0.649555215 0.128125371,1.21688349 C-0.0502270918,1.78421176 0.0876344673,2.40359461 0.489778934,2.84171651 C1.23464239,3.65315995 2.01778934,4.4063459 2.82840052,5.11292588 L0.539713914,7.40161248 C0.107016348,7.81952578 -0.0665177171,8.43839233 0.0858096743,9.02035029 C0.238137066,9.60230825 0.692620225,10.0567914 1.27457819,10.2091188 C1.85653615,10.3614462 2.4754027,10.1879121 2.89331599,9.75521456 L5.48660598,7.16192458 C6.86027115,8.09634018 8.31834554,8.90018972 9.84176853,9.56296489 L8.57258778,12.6264759 C8.23568744,13.4722115 8.64073477,14.4317076 9.48176674,14.7801839 C10.3227987,15.1286602 11.2877637,14.7368201 11.6477503,13.9006502 L12.9776853,10.6906632 C14.7245774,11.1941743 16.5255657,11.5120936 18.3606762,11.6360988 L18.3606762,15.0325098 C18.3606762,15.9517873 19.105898,16.697009 20.0251756,16.697009 C20.9444531,16.697009 21.6896749,15.9517873 21.6896749,15.0325098 L21.6896749,11.6510793 C23.577965,11.5357059 25.4475802,11.2107982 27.2640832,10.6823407 L28.5973472,13.9014824 C28.9573338,14.7376524 29.9222988,15.1294925 30.7633308,14.7810162 C31.6043628,14.4325399 32.0094101,13.4730438 31.6725098,12.6273082 L30.3975033,9.54881664 C31.8721648,8.90144597 33.2845461,8.1205969 34.6170091,7.21602081 L37.1570351,9.75604681 C37.8069644,10.4064357 38.8610805,10.4068083 39.5114694,9.75687904 C40.1618583,9.10694978 40.1622309,8.05283364 39.5123017,7.40244473 L39.5123017,7.40244473 Z" id="路径"></path>
        </g>
    </g>
</svg>