<?xml version="1.0" encoding="UTF-8"?>
<svg width="48px" height="48px" viewBox="0 0 48 48" version="1.1" xmlns="http://www.w3.org/2000/svg" xmlns:xlink="http://www.w3.org/1999/xlink">
    <!-- Generator: Sketch 54.1 (76490) - https://sketchapp.com -->
    <title>icon-display#48</title>
    <desc>Created with Sketch.</desc>
    <g id="页面1" stroke="none" stroke-width="1" fill="none" fill-rule="evenodd">
        <g id="htmal5icon09" transform="translate(4.000000, 10.000000)" fill="#CCCCCC" fill-rule="nonzero">
            <path d="M20.0192995,8.21725005 C16.9318079,8.21725005 14.5707565,10.5783014 14.5707565,13.665793 C14.5707565,16.7532846 16.9318079,19.1143359 20.0192995,19.1143359 C23.106791,19.1143359 25.4678424,16.7533381 25.4678424,13.665793 C25.4678424,10.5782479 23.1067911,8.21725005 20.0192995,8.21725005 Z M20.0192995,22.746698 C14.9340035,22.746698 10.9383946,18.7510891 10.9383946,13.665793 C10.9383946,8.58049702 14.9340035,4.58488812 20.0192995,4.58488812 C25.1045955,4.58488812 29.1002044,8.58049702 29.1002044,13.665793 C29.1002044,18.7510891 25.1045955,22.746698 20.0192995,22.746698 Z M20.0192995,0.0444088482 C10.9383946,0.0444088482 3.12880026,5.67457524 0.0413086387,13.665793 C3.12880026,21.6570108 10.9383946,27.2871772 20.0192995,27.2871772 C29.1002044,27.2871772 36.9097987,21.6570108 39.9972903,13.665793 C36.9097987,5.67457524 29.1002044,0.0444088482 20.0192995,0.0444088482 Z" id="形状"></path>
        </g>
    </g>
</svg>