<?xml version="1.0" encoding="UTF-8"?>
<svg width="110px" height="110px" viewBox="0 0 110 110" version="1.1" xmlns="http://www.w3.org/2000/svg" xmlns:xlink="http://www.w3.org/1999/xlink">
    <!-- Generator: Sketch 54.1 (76490) - https://sketchapp.com -->
    <title>头像2</title>
    <desc>Created with Sketch.</desc>
    <defs>
        <circle id="path-1" cx="55" cy="55" r="55"></circle>
        <polygon id="path-3" points="0 0.004640625 56.1208624 0.004640625 56.1208624 30.9375 0 30.9375"></polygon>
        <polygon id="path-5" points="2.0625 98.25 55.34375 98.25 55.34375 0.28125 2.0625 0.28125"></polygon>
    </defs>
    <g id="页面1" stroke="none" stroke-width="1" fill="none" fill-rule="evenodd">
        <g id="3-2我的-已登录-已实名" transform="translate(-320.000000, -168.000000)">
            <g id="头像2" transform="translate(320.000000, 168.000000)">
                <mask id="mask-2" fill="white">
                    <use xlink:href="#path-1"></use>
                </mask>
                <use id="椭圆形" fill="#F8F8F8" xlink:href="#path-1"></use>
                <g id="分组" mask="url(#mask-2)">
                    <g transform="translate(27.156250, 15.187500)">
                        <path d="M9.8071875,8.00273438 C9.8003125,8.00789063 9.7934375,8.01304688 9.7865625,8.01992188 L9.796875,8.02851563 L9.8071875,8.00273438 Z" id="Fill-1" stroke="none" fill="#3A1D0C" fill-rule="evenodd"></path>
                        <path d="M45.9017969,8.01992188 C45.8949219,8.01304688 45.8880469,8.00789063 45.8794531,8.00101563 L45.8914844,8.03023438 L45.9017969,8.01992188 Z" id="Fill-3" stroke="none" fill="#3A1D0C" fill-rule="evenodd"></path>
                        <path d="M28.301812,77.625 L27.3865923,77.625 C24.7919626,77.625 23.546875,75.7916702 23.546875,73.328125 L23.546875,64.0389537 L33,63.875 L33,73.1641713 C33,75.6277165 30.8964417,77.625 28.301812,77.625" id="Fill-5" stroke="none" fill="#FFDFBF" fill-rule="evenodd"></path>
                        <g id="分组" stroke="none" stroke-width="1" fill="none" fill-rule="evenodd" transform="translate(0.343750, 67.312500)">
                            <mask id="mask-4" fill="white">
                                <use xlink:href="#path-3"></use>
                            </mask>
                            <g id="Clip-8"></g>
                            <path d="M33.1938832,0.004640625 L33.1938832,5.19486121 C33.1938832,8.06021967 30.8954234,10.382352 28.0603862,10.382352 C25.225349,10.382352 22.9268891,8.06021967 22.9268891,5.19486121 L22.9268891,0.004640625 L12.1188162,2.43232445 C5.03797545,4.02287592 -9.00297619e-05,10.370523 -9.00297619e-05,17.7018006 L-9.00297619e-05,30.937591 L28.0603862,30.937591 L56.1208624,30.937591 L56.1208624,17.7018006 C56.1208624,10.370523 51.0827969,4.02287592 44.0019561,2.43232445 L33.1938832,0.004640625 Z" id="Fill-7" fill="#1F4DAA" mask="url(#mask-4)"></path>
                        </g>
                        <path d="M23.546875,69.171875 C25.1697783,69.7872419 26.0691523,70.03125 27.8876734,70.03125 C29.7116284,70.03125 31.3734741,69.7240526 33,69.1047971 L33,65.7385994 C31.3734741,66.3568828 29.7116284,66.6096401 27.8876734,66.6096401 C26.0293043,66.6096401 25.1978531,66.3267463 23.5459694,65.6861036 L23.546875,69.171875 Z" id="Fill-9" stroke="none" fill="#FFCC98" fill-rule="evenodd"></path>
                        <path d="M46.75,46.9004338 C46.75,58.1267066 37.8557231,67.3125 26.9847663,67.3125 C16.1130269,67.3125 7.21875,58.1267066 7.21875,46.9004338 L7.21875,35.9068969 C7.21875,27.4451706 13.436762,20.3742026 21.5907621,19.5402325 C23.3131186,19.3640643 25.2381513,19.2630505 27.3869885,19.2630505 C27.3869885,19.2630505 29.0029204,19.1418339 31.3059168,19.2064828 C39.9106563,19.448916 46.75,26.7550441 46.75,35.6442609 L46.75,46.9004338 Z" id="Fill-11" stroke="none" fill="#FFDFBF" fill-rule="evenodd"></path>
                        <path d="M49.1643701,19.1151302 C44.5675935,19.1151302 40.3021161,13.0622146 29.2149606,12.3990055 C28.5572343,12.3429829 27.8921998,12.3125 27.2206693,12.3125 C14.2756398,12.3125 3.78125,22.8908907 3.78125,36.0257258 C3.78125,39.2157202 4.40162402,42.3999477 5.52463091,44.96875 L6.41540354,44.96875 C6.41540354,34.6943645 8.40482283,24.9060576 20.6036171,26.1393794 C32.8024114,27.3727011 33.7305364,27.5350019 44.5919537,26.7020772 C48.2963337,36.2819469 46.3437254,44.96875 46.3437254,44.96875 L48.9167077,44.96875 C50.0397146,42.3999477 50.6600886,39.2272543 50.6600886,36.0372599 C50.6600886,32.5712716 49.9292815,29.2964193 48.6154528,26.3296915 C48.6869094,26.3025041 48.7583661,26.2843791 48.8281988,26.2547201 C55.1789124,23.5153782 55.34375,17.4945933 55.34375,17.4945933 C55.34375,17.4945933 54.0266732,19.1151302 49.1643701,19.1151302 Z" id="Fill-13" stroke="none" fill="#292825" fill-rule="evenodd"></path>
                        <path d="M46.75,46.6875 C49.5971636,46.6875 51.90625,44.7637067 51.90625,42.390625 C51.90625,40.0175433 49.5971636,38.09375 46.75,38.09375" id="Fill-15" stroke="none" fill="#FFCC98" fill-rule="evenodd"></path>
                        <path d="M48.46875,44.96875 C49.4184749,44.96875 50.1875,44.1991246 50.1875,43.25 C50.1875,42.3008754 49.4184749,41.53125 48.46875,41.53125" id="Fill-17" stroke="none" fill="#E95B45" fill-rule="evenodd"></path>
                        <path d="M7.21875,46.6875 C4.37105195,46.6875 2.0625,44.7637067 2.0625,42.390625 C2.0625,40.0175433 4.37105195,38.09375 7.21875,38.09375" id="Fill-19" stroke="none" fill="#FFCC98" fill-rule="evenodd"></path>
                        <path d="M7.21875,44.96875 C6.26962539,44.96875 5.5,44.1991246 5.5,43.25 C5.5,42.3008754 6.26962539,41.53125 7.21875,41.53125" id="Fill-21" stroke="none" fill="#E95B45" fill-rule="evenodd"></path>
                        <mask id="mask-6" fill="white">
                            <use xlink:href="#path-5"></use>
                        </mask>
                        <g id="Clip-24" stroke="none" fill="none"></g>
                        <polygon id="Fill-23" stroke="none" fill="#1F4DAA" fill-rule="evenodd" mask="url(#mask-6)" points="43.3125 98.25 44.171875 98.25 44.171875 89.65625 43.3125 89.65625"></polygon>
                        <polygon id="Fill-25" stroke="none" fill="#1F4DAA" fill-rule="evenodd" mask="url(#mask-6)" points="10.65625 98.25 12.375 98.25 12.375 89.65625 10.65625 89.65625"></polygon>
                        <path d="M29.84375,83.640625 C29.84375,84.1150837 29.4588337,84.5 28.984375,84.5 C28.5099163,84.5 28.125,84.1150837 28.125,83.640625 C28.125,83.1661663 28.5099163,82.78125 28.984375,82.78125 C29.4588337,82.78125 29.84375,83.1661663 29.84375,83.640625" id="Fill-26" stroke="none" fill="#F2F2F2" fill-rule="evenodd" mask="url(#mask-6)"></path>
                        <path d="M29.84375,88.515625 C29.84375,88.9900837 29.4588337,89.375 28.984375,89.375 C28.5099163,89.375 28.125,88.9900837 28.125,88.515625 C28.125,88.0411663 28.5099163,87.65625 28.984375,87.65625 C29.4588337,87.65625 29.84375,88.0411663 29.84375,88.515625" id="Fill-27" stroke="none" fill="#F2F2F2" fill-rule="evenodd" mask="url(#mask-6)"></path>
                    </g>
                </g>
            </g>
        </g>
    </g>
</svg>